# xmcd
#
# Track frame offsets: 
#        150
#        16209
#        33553
#        50766
#        68147
#        91998
#        114614
#        130622
#        145613
#        161460
#        186282
#        202472
#        216415
#        246116
#
# Disc length: 3571 seconds
#
# Revision: 0
# Processed by: cddbd v1.5.2PL0 Copyright (c) Steve Scherf et al.
# Submitted via: ExactAudioCopy v1.3
#
DISCID=cf0df10e
DTITLE=The Hip Pocket Band - Returns
DYEAR=2007
DGENRE=Guitar Blues
TTITLE0=Voodoo Love
TTITLE1=Gonna Boogie
TTITLE2=Fishin' Hole
TTITLE3=Rockin' Away The Heartache
TTITLE4=Anniversary
TTITLE5=Dock Of The Bay
TTITLE6=Blue
TTITLE7=Lonesome Whistle
TTITLE8=Rat Race
TTITLE9=Unfinished Business
TTITLE10=Big Bull Frog
TTITLE11=Huge Down Under
TTITLE12=Have You Ever Loved A Woman
TTITLE13=Eat My Baby's Cookin'
EXTD=
EXTT0=
EXTT1=
EXTT2=
EXTT3=
EXTT4=
EXTT5=
EXTT6=
EXTT7=
EXTT8=
EXTT9=
EXTT10=
EXTT11=
EXTT12=
EXTT13=
PLAYORDER=
